HIERARCHY
ROOT hip
{
  OFFSET 0 0 0
  CHANNELS 6 Xposition Yposition Zposition Zrotation Yrotation Xrotation
  JOINT abdomen
  {
    OFFSET 0 20.6881 -0.73152
    CHANNELS 3 Zrotation Xrotation Yrotation
    JOINT chest
    {
      OFFSET 0 11.7043 -0.48768
      CHANNELS 3 Zrotation Xrotation Yrotation
      JOINT neck
      {
        OFFSET 0 22.1894 -2.19456
        CHANNELS 3 Zrotation Xrotation Yrotation
        JOINT head
        {
          OFFSET -0.24384 7.07133 1.2192
          CHANNELS 3 Zrotation Xrotation Yrotation
          JOINT leftEye
          {
            OFFSET 4.14528 8.04674 8.04672
            CHANNELS 3 Zrotation Xrotation Yrotation
            End Site
            {
              OFFSET 1 0 0
            }
          }
          JOINT rightEye
          {
            OFFSET -3.6576 8.04674 8.04672
            CHANNELS 3 Zrotation Xrotation Yrotation
            End Site
            {
              OFFSET 1 0 0
            }
          }
        }
      }
      JOINT rCollar
      {
        OFFSET -2.68224 19.2634 -4.8768
        CHANNELS 3 Zrotation Xrotation Yrotation
        JOINT rShldr
        {
          OFFSET -8.77824 -1.95073 1.46304
          CHANNELS 3 Zrotation Xrotation Yrotation
          JOINT rForeArm
          {
            OFFSET -28.1742 -1.7115 0.48768
            CHANNELS 3 Zrotation Xrotation Yrotation
            JOINT rHand
            {
              OFFSET -22.5879 0.773209 7.07136
              CHANNELS 3 Zrotation Xrotation Yrotation
              JOINT rThumb1
              {
                OFFSET -1.2192 -0.487915 3.41376
                CHANNELS 3 Zrotation Xrotation Yrotation
                JOINT rThumb2
                {
                  OFFSET -3.37035 -0.52449 3.41376
                  CHANNELS 3 Zrotation Xrotation Yrotation
                  End Site
                  {
                    OFFSET -1.78271 -1.18214 1.43049
                  }
                }
              }
              JOINT rIndex1
              {
                OFFSET -7.75947 0.938293 5.60832
                CHANNELS 3 Zrotation Xrotation Yrotation
                JOINT rIndex2
                {
                  OFFSET -2.54057 -0.884171 1.56538
                  CHANNELS 3 Zrotation Xrotation Yrotation
                  End Site
                  {
                    OFFSET -1.62519 -0.234802 1.16502
                  }
                }
              }
              JOINT rMid1
              {
                OFFSET -8.24714 1.18213 3.41376
                CHANNELS 3 Zrotation Xrotation Yrotation
                JOINT rMid2
                {
                  OFFSET -3.10165 -0.590103 1.0647
                  CHANNELS 3 Zrotation Xrotation Yrotation
                  End Site
                  {
                    OFFSET -2.48547 -0.328903 0.83742
                  }
                }
              }
              JOINT rRing1
              {
                OFFSET -8.82822 0.546677 1.51678
                CHANNELS 3 Zrotation Xrotation Yrotation
                JOINT rRing2
                {
                  OFFSET -2.60934 -0.819778 -0.0198488
                  CHANNELS 3 Zrotation Xrotation Yrotation
                  End Site
                  {
                    OFFSET -2.33842 -0.294052 0.168128
                  }
                }
              }
              JOINT rPinky1
              {
                OFFSET -8.27202 -0.0477905 -0.4584
                CHANNELS 3 Zrotation Xrotation Yrotation
                JOINT rPinky2
                {
                  OFFSET -1.82734 -0.647385 -0.700984
                  CHANNELS 3 Zrotation Xrotation Yrotation
                  End Site
                  {
                    OFFSET -1.69225 -0.51767 -0.607171
                  }
                }
              }
            }
          }
        }
      }
      JOINT lCollar
      {
        OFFSET 2.68224 19.2634 -4.8768
        CHANNELS 3 Zrotation Xrotation Yrotation
        JOINT lShldr
        {
          OFFSET 8.77824 -1.95073 1.46304
          CHANNELS 3 Zrotation Xrotation Yrotation
          JOINT lForeArm
          {
            OFFSET 28.1742 -1.7115 0.48768
            CHANNELS 3 Zrotation Xrotation Yrotation
            JOINT lHand
            {
              OFFSET 22.5879 0.773209 7.07136
              CHANNELS 3 Zrotation Xrotation Yrotation
              JOINT lThumb1
              {
                OFFSET 1.2192 -0.487915 3.41376
                CHANNELS 3 Zrotation Xrotation Yrotation
                JOINT lThumb2
                {
                  OFFSET 3.37035 -0.52449 3.41376
                  CHANNELS 3 Zrotation Xrotation Yrotation
                  End Site
                  {
                    OFFSET 1.78271 -1.18214 1.43049
                  }
                }
              }
              JOINT lIndex1
              {
                OFFSET 7.75947 0.938293 5.60832
                CHANNELS 3 Zrotation Xrotation Yrotation
                JOINT lIndex2
                {
                  OFFSET 2.54057 -0.884171 1.56538
                  CHANNELS 3 Zrotation Xrotation Yrotation
                  End Site
                  {
                    OFFSET 1.62519 -0.234802 1.16502
                  }
                }
              }
              JOINT lMid1
              {
                OFFSET 8.24714 1.18213 3.41376
                CHANNELS 3 Zrotation Xrotation Yrotation
                JOINT lMid2
                {
                  OFFSET 3.10165 -0.590103 1.0647
                  CHANNELS 3 Zrotation Xrotation Yrotation
                  End Site
                  {
                    OFFSET 2.48547 -0.328903 0.83742
                  }
                }
              }
              JOINT lRing1
              {
                OFFSET 8.82822 0.546677 1.51678
                CHANNELS 3 Zrotation Xrotation Yrotation
                JOINT lRing2
                {
                  OFFSET 2.60934 -0.819778 -0.0198488
                  CHANNELS 3 Zrotation Xrotation Yrotation
                  End Site
                  {
                    OFFSET 2.33842 -0.294052 0.168128
                  }
                }
              }
              JOINT lPinky1
              {
                OFFSET 8.27202 -0.0477905 -0.4584
                CHANNELS 3 Zrotation Xrotation Yrotation
                JOINT lPinky2
                {
                  OFFSET 1.82734 -0.647385 -0.700984
                  CHANNELS 3 Zrotation Xrotation Yrotation
                  End Site
                  {
                    OFFSET 1.69225 -0.51767 -0.607171
                  }
                }
              }
            }
          }
        }
      }
    }
  }
  JOINT rButtock
  {
    OFFSET -8.77824 4.35084 1.2192
    CHANNELS 3 Zrotation Xrotation Yrotation
    JOINT rThigh
    {
      OFFSET 0 -1.70687 -2.19456
      CHANNELS 3 Zrotation Xrotation Yrotation
      JOINT rShin
      {
        OFFSET 0 -36.8199 0.73152
        CHANNELS 3 Zrotation Xrotation Yrotation
        JOINT rFoot
        {
          OFFSET 0.73152 -45.1104 -5.12064
          CHANNELS 3 Zrotation Xrotation Yrotation
          End Site
          {
            OFFSET -1.1221 -3.69964 12.103
          }
        }
      }
    }
  }
  JOINT lButtock
  {
    OFFSET 8.77824 4.35084 1.2192
    CHANNELS 3 Zrotation Xrotation Yrotation
    JOINT lThigh
    {
      OFFSET 0 -1.70687 -2.19456
      CHANNELS 3 Zrotation Xrotation Yrotation
      JOINT lShin
      {
        OFFSET 0 -36.8199 0.73152
        CHANNELS 3 Zrotation Xrotation Yrotation
        JOINT lFoot
        {
          OFFSET -0.73152 -45.1104 -5.12064
          CHANNELS 3 Zrotation Xrotation Yrotation
          End Site
          {
            OFFSET 1.1221 -3.69964 12.103
          }
        }
      }
    }
  }
}
MOTION
Frames:	6
Frame Time:	0.00833333
64.3129 68.3633 -33.3887 401.479 -93.4617 -376.438 6.09414 14.9027 9.01032 -5.79296 7.78889 2.60803 -0.143468 13.3688 6.35115 -16.127 -57.2649 4.21108 -0.0 0.0 0.0 -0.0 0.0 0.0 -2.2009e-13 -1.67697e-12 -1.53071e-13 147.063 30.6554 -85.5148 -18.3021 -11.0052 34.7225 -5.0589e-05 0.445887 0.0626633 -8.4957e-10 -3.37276e-09 -1.19389e-09 -1.459e-09 -5.83174e-09 -2.06642e-09 -8.49567e-10 -3.37277e-09 -1.19389e-09 7.73091 5.47488 0.417314 -8.49568e-10 -3.37277e-09 -1.19388e-09 2.90554 0.965183 0.102902 -8.49565e-10 -3.37277e-09 -1.19388e-09 10.2786 0.731801 0.0259123 -8.49578e-10 -3.37276e-09 -1.19387e-09 2.22167 -0.733487 -0.20892 -2.19972e-13 -1.67696e-12 -1.53217e-13 -61.4919 34.0808 60.1539 10.3556 -4.35902 -18.4716 3.49896 -45.7091 8.285 -7.20319e-09 -8.34727e-09 3.71829e-09 -1.25458e-08 -1.48429e-08 6.17208e-09 -7.20319e-09 -8.34727e-09 3.71831e-09 -7.73091 5.47488 -0.417314 -7.20319e-09 -8.34727e-09 3.7183e-09 -2.90554 0.965183 -0.102902 -7.2032e-09 -8.34727e-09 3.7183e-09 -10.2786 0.731801 -0.0259123 -7.20318e-09 -8.34727e-09 3.71829e-09 -2.22167 -0.733487 0.20892 -2.03217e-16 0.0 -3.88251e-19 -47.5964 -17.4779 -44.7756 -1.40753 65.9195 2.37177 1.16587 0.636105 14.6131 2.03217e-16 0.0 3.88251e-19 107.698 -58.552 116.27 0.878702 53.3983 -0.382744 -1.4048 18.2397 5.94596
62.0799 67.8415 -33.5099 449.479 -93.467 -425.733 6.04088 14.3822 10.0793 -5.56981 7.72655 2.85646 -0.158654 13.2074 5.92085 -16.4048 -57.4992 3.05925 -0.0 0.0 0.0 -0.0 0.0 0.0 -2.17163e-13 -1.67795e-12 -2.03456e-13 145.704 30.6559 -84.1623 -17.7604 -10.4314 33.4849 -2.19525e-05 0.133785 0.0188023 -1.38809e-09 -2.87291e-09 -1.15589e-09 -2.39029e-09 -4.96519e-09 -1.99988e-09 -1.38809e-09 -2.87292e-09 -1.15589e-09 7.73091 5.47488 0.417314 -1.38809e-09 -2.87291e-09 -1.15588e-09 2.90554 0.965183 0.102902 -1.38809e-09 -2.87291e-09 -1.15588e-09 10.2786 0.731801 0.0259123 -1.3881e-09 -2.87291e-09 -1.15587e-09 2.22167 -0.733487 -0.20892 -2.16997e-13 -1.67794e-12 -2.03605e-13 -61.9058 33.0849 61.0295 10.33 -4.34425 -18.4216 3.49867 -45.7211 8.28655 -6.77316e-09 -6.14098e-09 3.39945e-09 -1.1791e-08 -1.09377e-08 5.63567e-09 -6.77317e-09 -6.14098e-09 3.39947e-09 -7.73091 5.47488 -0.417314 -6.77316e-09 -6.14099e-09 3.39945e-09 -2.90554 0.965183 -0.102902 -6.77317e-09 -6.14098e-09 3.39946e-09 -10.2786 0.731801 -0.0259123 -6.77316e-09 -6.14098e-09 3.39945e-09 -2.22167 -0.733487 0.20892 -2.03217e-16 0.0 -3.88251e-19 -44.4177 -13.7058 -41.5401 -1.34615 65.2948 2.33023 0.690009 1.56427 13.3728 2.03217e-16 0.0 3.88251e-19 107.194 -58.4188 118.583 0.894985 52.6515 -0.211049 -1.54349 19.2903 6.19677
59.7413 67.2822 -33.6252 478.22 -95.2747 -455.944 5.85798 13.9386 11.0926 -5.16463 7.50485 3.06358 -0.33438 13.0333 5.47213 -16.3015 -57.6978 2.09175 -0.0 0.0 0.0 -0.0 0.0 0.0 -2.508e-13 -1.77055e-12 -2.41318e-13 144.017 30.7418 -82.5337 -17.1356 -9.80269 32.0674 -0.000190356 -0.186364 -0.0261886 -1.18802e-09 -2.48293e-09 -9.28333e-10 -2.04463e-09 -4.29001e-09 -1.60675e-09 -1.18801e-09 -2.48294e-09 -9.28338e-10 7.73091 5.47488 0.417314 -1.18801e-09 -2.48294e-09 -9.28322e-10 2.90554 0.965183 0.102902 -1.18801e-09 -2.48294e-09 -9.28323e-10 10.2786 0.731801 0.0259123 -1.18802e-09 -2.48293e-09 -9.28313e-10 2.22167 -0.733487 -0.20892 -2.50639e-13 -1.77054e-12 -2.41477e-13 -61.5454 31.6881 61.4415 10.2016 -4.26589 -18.178 3.35645 -45.0492 8.08989 -6.89392e-09 -5.15427e-09 3.15663e-09 -1.19892e-08 -9.17206e-09 5.21674e-09 -6.89393e-09 -5.15427e-09 3.15665e-09 -7.73091 5.47488 -0.417314 -6.89392e-09 -5.15428e-09 3.15663e-09 -2.90554 0.965183 -0.102902 -6.89393e-09 -5.15427e-09 3.15664e-09 -10.2786 0.731801 -0.0259123 -6.89392e-09 -5.15427e-09 3.15664e-09 -2.22167 -0.733487 0.20892 -2.03217e-16 0.0 -3.88251e-19 -40.8234 -9.71404 -37.9114 -1.25525 64.3026 2.27794 0.393165 1.80035 11.9604 2.03217e-16 0.0 3.88251e-19 105.707 -58.3925 119.736 0.930715 52.5619 -0.0956822 -1.45562 20.1694 5.6296
57.3126 66.6811 -33.7304 490.387 -97.6729 -469.723 5.58744 13.5333 12.0609 -4.60236 7.15313 3.23641 -0.647855 12.8862 5.01196 -15.8958 -57.9055 1.27138 -0.0 0.0 0.0 -0.0 0.0 0.0 -3.02673e-13 -1.91928e-12 -2.72804e-13 141.928 30.8558 -80.5448 -16.3734 -9.05712 30.4136 -0.000787542 -0.536943 -0.0754594 -5.42867e-10 -2.12273e-09 -5.75065e-10 -9.29539e-10 -3.6671e-09 -9.9702e-10 -5.42858e-10 -2.12273e-09 -5.75079e-10 7.73091 5.47488 0.417314 -5.42865e-10 -2.12273e-09 -5.75056e-10 2.90554 0.965183 0.102902 -5.42863e-10 -2.12274e-09 -5.75057e-10 10.2786 0.731801 0.0259123 -5.42875e-10 -2.12273e-09 -5.75048e-10 2.22167 -0.733487 -0.20892 -3.02547e-13 -1.91925e-12 -2.72978e-13 -60.5544 29.9886 61.5086 9.98821 -4.13562 -17.777 3.11732 -43.8371 7.75044 -7.27214e-09 -4.80797e-09 2.92665e-09 -1.2632e-08 -8.52726e-09 4.81464e-09 -7.27214e-09 -4.80796e-09 2.92667e-09 -7.73091 5.47488 -0.417314 -7.27214e-09 -4.80797e-09 2.92665e-09 -2.90554 0.965183 -0.102902 -7.27215e-09 -4.80797e-09 2.92665e-09 -10.2786 0.731801 -0.0259123 -7.27214e-09 -4.80797e-09 2.92666e-09 -2.22167 -0.733487 0.20892 -2.03217e-16 0.0 -3.88251e-19 -37.1032 -5.27723 -33.9259 -1.14374 63.0088 2.21825 0.197456 1.41098 10.2894 2.03217e-16 0.0 3.88251e-19 103.367 -58.5196 119.974 0.975497 52.9771 -0.0101547 -1.17377 20.897 4.48959
54.8165 66.0607 -33.8289 496.213 -100.196 -477.255 5.26493 13.0754 12.9183 -3.99805 6.76112 3.37976 -0.988769 12.7289 4.53142 -15.3255 -58.1545 0.49575 -0.0 0.0 0.0 -0.0 0.0 0.0 -3.46959e-13 -2.00911e-12 -2.80748e-13 139.496 30.9949 -78.2548 -15.5305 -8.26686 28.6593 -0.00128727 -0.764867 -0.107498 1.3653e-10 -1.74962e-09 -2.35944e-10 2.44223e-10 -3.02266e-09 -4.11605e-10 1.36545e-10 -1.74962e-09 -2.35967e-10 7.73091 5.47488 0.417314 1.36532e-10 -1.74962e-09 -2.35938e-10 2.90554 0.965183 0.102902 1.36534e-10 -1.74963e-09 -2.35938e-10 10.2786 0.731801 0.0259123 1.36521e-10 -1.74962e-09 -2.35931e-10 2.22167 -0.733487 -0.20892 -3.46885e-13 -2.00908e-12 -2.80937e-13 -59.1597 28.1672 61.3153 9.7366 -3.98343 -17.3074 2.87735 -42.5075 7.39781 -7.32397e-09 -4.59765e-09 2.55208e-09 -1.27079e-08 -8.12291e-09 4.17307e-09 -7.32397e-09 -4.59765e-09 2.55209e-09 -7.73091 5.47488 -0.417314 -7.32397e-09 -4.59766e-09 2.55208e-09 -2.90554 0.965183 -0.102902 -7.32398e-09 -4.59766e-09 2.55208e-09 -10.2786 0.731801 -0.0259123 -7.32397e-09 -4.59766e-09 2.55208e-09 -2.22167 -0.733487 0.20892 -2.03217e-16 0.0 -3.88251e-19 -33.4903 -0.63049 -30.0385 -1.03559 61.6587 2.1529 0.0012884 0.72556 8.36854 2.03217e-16 0.0 3.88251e-19 100.814 -58.8167 119.548 1.03153 53.8501 0.0364607 -0.76125 20.8898 3.10362
52.2901 65.4672 -33.9192 499.351 -102.703 -482.131 4.9294 12.4751 13.5992 -3.46778 6.41852 3.49842 -1.24821 12.5238 4.02195 -14.7343 -58.474 -0.342806 -0.0 0.0 0.0 -0.0 0.0 0.0 -3.57833e-13 -1.92505e-12 -2.47984e-13 136.776 31.168 -75.7167 -14.6813 -7.51751 26.9352 -0.000630637 -0.717053 -0.100781 4.39351e-10 -1.32094e-09 -5.08253e-11 7.65898e-10 -2.28287e-09 -9.14163e-11 4.39369e-10 -1.32093e-09 -5.08539e-11 7.73091 5.47488 0.417314 4.39352e-10 -1.32094e-09 -5.08221e-11 2.90554 0.965183 0.102902 4.39355e-10 -1.32094e-09 -5.08213e-11 10.2786 0.731801 0.0259123 4.39342e-10 -1.32094e-09 -5.08157e-11 2.22167 -0.733487 -0.20892 -3.57815e-13 -1.92501e-12 -2.48183e-13 -57.5804 26.3902 60.9111 9.49499 -3.84004 -16.8578 2.70663 -41.4852 7.1389 -6.46557e-09 -4.01893e-09 1.87549e-09 -1.12058e-08 -7.0786e-09 3.03578e-09 -6.46557e-09 -4.01893e-09 1.8755e-09 -7.73091 5.47488 -0.417314 -6.46557e-09 -4.01893e-09 1.87549e-09 -2.90554 0.965183 -0.102902 -6.46557e-09 -4.01893e-09 1.87549e-09 -10.2786 0.731801 -0.0259123 -6.46556e-09 -4.01893e-09 1.8755e-09 -2.22167 -0.733487 0.20892 -2.03217e-16 0.0 -3.88251e-19 -29.996 3.82493 -26.6209 -0.952455 60.4975 2.0807 -0.262246 0.0820657 6.20395 2.03217e-16 0.0 3.88251e-19 98.6708 -59.2871 118.696 1.10535 55.134 0.031648 -0.356428 19.5692 1.82675
